<svg width="360" height="187" viewBox="0 0 360 187" fill="none" xmlns="http://www.w3.org/2000/svg">
<path d="M70.136 30.216C68.4293 30.216 67.1067 29.7467 66.168 28.808C65.272 27.8267 64.824 26.6533 64.824 25.288C64.824 24.9467 64.8667 24.5413 64.952 24.072C65.08 23.6027 65.2293 23.1973 65.4 22.856C65.9547 23.112 66.7653 23.304 67.832 23.432C68.9413 23.5173 70.2213 23.56 71.672 23.56C73.848 23.56 76.3013 23.4747 79.032 23.304C81.8053 23.0907 84.4507 22.8773 86.968 22.664C89.4853 22.4507 91.704 22.2587 93.624 22.088C95.544 21.8747 96.7813 21.768 97.336 21.768C98.9147 21.768 100.045 22.3653 100.728 23.56C101.453 24.712 101.987 26.2693 102.328 28.232C101.219 28.1467 100.109 28.0827 99 28.04C97.9333 27.9547 97.016 27.912 96.248 27.912C94.8827 27.912 93.496 27.9547 92.088 28.04C90.7227 28.1253 89.336 28.2533 87.928 28.424C87.3307 29.6613 86.6693 31.1333 85.944 32.84C85.2187 34.504 84.4933 36.2533 83.768 38.088C83.0853 39.9227 82.424 41.7573 81.784 43.592C81.144 45.384 80.5893 47.0053 80.12 48.456C79.1813 51.272 78.3493 53.8747 77.624 56.264C76.9413 58.6533 76.3227 60.8933 75.768 62.984C75.256 65.032 74.808 66.9947 74.424 68.872C74.04 70.7493 73.6987 72.584 73.4 74.376C70.5413 73.9493 68.152 72.1573 66.232 69C66.5733 67.6773 66.9787 66.248 67.448 64.712C67.96 63.1333 68.536 61.3627 69.176 59.4C69.8587 57.3947 70.648 55.1333 71.544 52.616C72.44 50.0987 73.464 47.24 74.616 44.04C75.0427 42.8453 75.4907 41.608 75.96 40.328C76.4293 39.0053 76.8773 37.704 77.304 36.424C77.7733 35.144 78.1787 33.9067 78.52 32.712C78.904 31.5173 79.224 30.4293 79.48 29.448C77.688 29.6613 75.9813 29.8533 74.36 30.024C72.7813 30.152 71.3733 30.216 70.136 30.216ZM93.8315 67.912C93.8315 66.4187 93.9808 64.6693 94.2795 62.664C94.5782 60.616 95.0048 58.44 95.5595 56.136C96.1568 53.832 96.8395 51.4213 97.6075 48.904C98.4182 46.3867 99.3142 43.8693 100.296 41.352C101.149 39.0907 102.13 36.808 103.24 34.504C104.392 32.2 105.629 29.9387 106.952 27.72C108.274 25.5013 109.64 23.3893 111.048 21.384C112.498 19.3787 113.949 17.544 115.4 15.88C116.082 15.88 116.808 15.9653 117.576 16.136C118.386 16.3067 119.154 16.5413 119.88 16.84C120.648 17.096 121.33 17.416 121.928 17.8C122.568 18.184 123.08 18.568 123.464 18.952C120.264 22.2373 117.384 25.5653 114.824 28.936C112.264 32.264 110.237 35.4 108.744 38.344C107.933 39.9653 107.186 41.48 106.503 42.888C105.864 44.296 105.266 45.704 104.712 47.112C104.157 48.4773 103.645 49.864 103.176 51.272C102.749 52.6373 102.344 54.088 101.96 55.624C110.152 45.1707 116.232 39.944 120.2 39.944C121.309 39.944 122.504 40.3067 123.784 41.032C125.064 41.7573 126.194 42.7387 127.176 43.976C125.853 45.4267 124.488 47.176 123.08 49.224C121.672 51.272 120.37 53.3413 119.176 55.432C118.024 57.48 117.064 59.4 116.296 61.192C115.57 62.9413 115.208 64.2427 115.208 65.096C115.208 65.5227 115.272 65.8213 115.4 65.992C115.528 66.12 115.805 66.184 116.232 66.184C116.872 66.184 117.384 66.0987 117.768 65.928C118.152 65.7573 118.386 65.672 118.472 65.672C118.685 66.0133 118.813 66.248 118.856 66.376C118.898 66.504 118.92 66.6107 118.92 66.696C118.92 66.8667 118.664 67.1227 118.152 67.464C117.64 67.7627 117.021 68.0827 116.296 68.424C115.613 68.7227 114.93 69 114.248 69.256C113.565 69.512 113.053 69.64 112.712 69.64C112.285 69.64 111.858 69.512 111.432 69.256C111.005 69.0427 110.621 68.744 110.28 68.36C109.981 67.976 109.725 67.5493 109.512 67.08C109.341 66.6107 109.256 66.12 109.256 65.608C109.256 64.968 109.426 64.0293 109.768 62.792C110.152 61.512 110.664 60.04 111.304 58.376C111.944 56.6693 112.712 54.8133 113.608 52.808C114.504 50.8027 115.464 48.7547 116.488 46.664C116.488 46.4933 116.402 46.408 116.232 46.408C116.104 46.408 115.762 46.5787 115.208 46.92C114.696 47.2613 114.205 47.6027 113.736 47.944C112.2 49.096 110.642 50.5253 109.064 52.232C107.528 53.896 106.013 55.7307 104.52 57.736C103.069 59.7413 101.682 61.8747 100.36 64.136C99.0795 66.3547 97.9702 68.5947 97.0315 70.856C96.9035 71.1547 96.7115 71.432 96.4555 71.688C96.1995 71.944 95.9862 72.072 95.8155 72.072C95.6875 72.072 95.4955 71.9227 95.2395 71.624C95.0262 71.3253 94.8128 70.9413 94.5995 70.472C94.4288 70.0453 94.2582 69.5973 94.0875 69.128C93.9168 68.6587 93.8315 68.2533 93.8315 67.912ZM149.87 42.504C149.699 45.1493 149.23 47.432 148.462 49.352C147.694 51.2293 146.585 52.8933 145.134 54.344C143.726 55.752 141.998 57.032 139.95 58.184C137.902 59.336 135.513 60.4453 132.782 61.512C132.782 61.768 132.761 62.0453 132.718 62.344C132.718 62.6 132.718 62.8773 132.718 63.176C132.718 63.7307 132.761 64.3067 132.846 64.904C132.931 65.5013 133.081 66.056 133.294 66.568C133.507 67.08 133.806 67.5067 134.19 67.848C134.574 68.1467 135.065 68.296 135.662 68.296C136.814 68.296 137.945 68.04 139.054 67.528C140.163 67.016 141.209 66.3973 142.19 65.672C143.214 64.904 144.153 64.0933 145.006 63.24C145.902 62.344 146.691 61.5333 147.374 60.808C147.801 61.192 148.163 61.5547 148.462 61.896C146.542 64.456 144.43 66.5893 142.126 68.296C139.865 69.96 137.71 71.0267 135.662 71.496C132.718 71.1547 130.414 70.088 128.75 68.296C127.129 66.4613 126.318 64.264 126.318 61.704C126.318 59.9547 126.553 58.184 127.022 56.392C127.534 54.5573 128.217 52.808 129.07 51.144C129.966 49.4373 130.99 47.8373 132.142 46.344C133.337 44.8507 134.595 43.5493 135.918 42.44C137.283 41.3307 138.67 40.456 140.078 39.816C141.529 39.176 142.958 38.856 144.366 38.856C146.329 39.112 148.163 40.328 149.87 42.504ZM145.454 44.616C144.302 44.7867 143.107 45.256 141.87 46.024C140.633 46.792 139.459 47.816 138.35 49.096C137.283 50.376 136.302 51.8693 135.406 53.576C134.51 55.2827 133.806 57.1173 133.294 59.08C136.707 57.3733 139.545 55.2827 141.806 52.808C144.067 50.2907 145.283 47.56 145.454 44.616ZM194.771 41.736C196.179 41.736 197.267 42.12 198.035 42.888C198.846 43.656 199.251 44.7227 199.251 46.088C199.251 46.4293 199.208 46.792 199.123 47.176C199.08 47.5173 199.016 47.816 198.931 48.072C198.376 47.9867 197.758 47.9227 197.075 47.88C196.392 47.7947 195.582 47.752 194.643 47.752C192.808 47.752 190.952 47.9227 189.075 48.264C187.198 48.5627 185.406 48.8187 183.699 49.032C182.718 51.2933 181.822 53.4907 181.011 55.624C180.2 57.7147 179.496 59.6347 178.899 61.384C178.344 63.1333 177.896 64.648 177.555 65.928C177.256 67.208 177.086 68.168 177.043 68.808C180.499 68.0827 183.976 67.464 187.475 66.952C191.016 66.44 194.728 66.056 198.611 65.8C199.08 66.5253 199.464 67.3147 199.763 68.168C200.104 69.0213 200.275 69.9387 200.275 70.92C200.275 71.176 200.275 71.4533 200.275 71.752C200.275 72.0507 200.232 72.3493 200.147 72.648C198.952 72.6053 197.694 72.5627 196.371 72.52C195.048 72.52 193.32 72.52 191.187 72.52C189.779 72.52 188.435 72.5413 187.155 72.584C185.918 72.6693 184.659 72.776 183.379 72.904C182.099 73.032 180.734 73.2027 179.283 73.416C177.875 73.6293 176.275 73.8853 174.483 74.184C172.52 73.416 170.622 71.5387 168.787 68.552C169.512 67.016 170.515 64.6907 171.795 61.576C173.118 58.4187 174.782 54.216 176.787 48.968C174.867 48.3707 173.608 47.304 173.011 45.768C173.224 45.5547 173.843 45.2987 174.867 45C175.891 44.6587 177.15 44.3173 178.643 43.976C179.283 42.312 179.816 40.8613 180.243 39.624C180.712 38.3867 181.118 37.2347 181.459 36.168C181.8 35.0587 182.099 33.992 182.355 32.968C182.654 31.9013 182.931 30.7493 183.187 29.512C181.694 29.4267 180.52 29.0213 179.667 28.296C178.814 27.528 178.387 26.5467 178.387 25.352C178.387 25.0107 178.43 24.6053 178.515 24.136C178.643 23.6667 178.771 23.2613 178.899 22.92C179.752 23.048 180.563 23.1333 181.331 23.176C182.142 23.2187 183.187 23.24 184.467 23.24C187.155 23.24 189.672 23.176 192.019 23.048C194.366 22.8773 196.478 22.7067 198.355 22.536C200.275 22.3653 201.918 22.216 203.283 22.088C204.648 21.9173 205.694 21.832 206.419 21.832C207.4 21.832 208.275 22.344 209.043 23.368C209.811 24.392 210.387 25.8427 210.771 27.72C209.448 27.592 208.36 27.5067 207.507 27.464C206.696 27.4213 205.971 27.4 205.331 27.4C202.984 27.4 200.83 27.528 198.867 27.784C196.947 27.9973 195.091 28.232 193.299 28.488C193.043 28.872 192.744 29.3627 192.403 29.96C192.104 30.5573 191.699 31.3893 191.187 32.456C190.675 33.5227 190.035 34.8667 189.267 36.488C188.542 38.1093 187.646 40.136 186.579 42.568C188.2 42.312 189.715 42.12 191.123 41.992C192.574 41.8213 193.79 41.736 194.771 41.736ZM219.91 39.112C220.763 39.112 221.745 39.368 222.854 39.88C223.963 40.392 224.945 41.0533 225.798 41.864C225.585 40.1573 225.307 38.5573 224.966 37.064C224.667 35.528 224.198 33.9493 223.558 32.328C222.961 30.7067 222.15 28.936 221.126 27.016C220.102 25.096 218.822 22.8987 217.286 20.424C217.414 20.04 217.691 19.592 218.118 19.08C218.587 18.568 219.099 18.0987 219.654 17.672C220.251 17.2027 220.849 16.7973 221.446 16.456C222.086 16.1147 222.683 15.9013 223.238 15.816C224.433 17.1387 225.563 18.8027 226.63 20.808C227.697 22.7707 228.635 24.904 229.446 27.208C230.257 29.4693 230.875 31.816 231.302 34.248C231.771 36.68 232.006 39.0053 232.006 41.224C232.006 43.4427 231.75 45.7253 231.238 48.072C230.769 50.4187 230.086 52.7227 229.19 54.984C228.337 57.2027 227.334 59.3147 226.182 61.32C225.03 63.3253 223.771 65.1173 222.406 66.696C221.083 68.2747 219.697 69.5547 218.246 70.536C216.795 71.56 215.345 72.2 213.894 72.456C210.95 72.1147 208.689 71.1547 207.11 69.576C205.574 68.04 204.806 65.9067 204.806 63.176C204.806 61.7253 205.019 60.1467 205.446 58.44C205.915 56.7333 206.513 55.048 207.238 53.384C208.006 51.6773 208.881 50.0347 209.862 48.456C210.886 46.8347 211.953 45.384 213.062 44.104C214.214 42.824 215.366 41.736 216.518 40.84C217.67 39.944 218.801 39.368 219.91 39.112ZM213.382 69.896C214.875 69.384 216.369 68.2533 217.862 66.504C219.355 64.7547 220.699 62.7067 221.894 60.36C223.089 57.9707 224.049 55.432 224.774 52.744C225.542 50.0133 225.926 47.3893 225.926 44.872C225.926 44.1467 225.926 43.6987 225.926 43.528C225.926 43.3573 225.905 43.1867 225.862 43.016C224.838 43.4427 223.75 44.168 222.598 45.192C221.446 46.216 220.294 47.4107 219.142 48.776C217.99 50.0987 216.902 51.5493 215.878 53.128C214.854 54.7067 213.937 56.2853 213.126 57.864C212.315 59.4427 211.675 60.9573 211.206 62.408C210.737 63.8587 210.502 65.1387 210.502 66.248C210.502 68.3813 211.462 69.5973 213.382 69.896ZM247.598 39.112C248.451 39.112 249.432 39.368 250.542 39.88C251.651 40.392 252.632 41.0533 253.486 41.864C253.272 40.1573 252.995 38.5573 252.654 37.064C252.355 35.528 251.886 33.9493 251.246 32.328C250.648 30.7067 249.838 28.936 248.814 27.016C247.79 25.096 246.51 22.8987 244.974 20.424C245.102 20.04 245.379 19.592 245.806 19.08C246.275 18.568 246.787 18.0987 247.342 17.672C247.939 17.2027 248.536 16.7973 249.134 16.456C249.774 16.1147 250.371 15.9013 250.926 15.816C252.12 17.1387 253.251 18.8027 254.318 20.808C255.384 22.7707 256.323 24.904 257.134 27.208C257.944 29.4693 258.563 31.816 258.99 34.248C259.459 36.68 259.694 39.0053 259.694 41.224C259.694 43.4427 259.438 45.7253 258.926 48.072C258.456 50.4187 257.774 52.7227 256.878 54.984C256.024 57.2027 255.022 59.3147 253.87 61.32C252.718 63.3253 251.459 65.1173 250.094 66.696C248.771 68.2747 247.384 69.5547 245.934 70.536C244.483 71.56 243.032 72.2 241.582 72.456C238.638 72.1147 236.376 71.1547 234.798 69.576C233.262 68.04 232.494 65.9067 232.494 63.176C232.494 61.7253 232.707 60.1467 233.134 58.44C233.603 56.7333 234.2 55.048 234.926 53.384C235.694 51.6773 236.568 50.0347 237.55 48.456C238.574 46.8347 239.64 45.384 240.75 44.104C241.902 42.824 243.054 41.736 244.206 40.84C245.358 39.944 246.488 39.368 247.598 39.112ZM241.07 69.896C242.563 69.384 244.056 68.2533 245.55 66.504C247.043 64.7547 248.387 62.7067 249.582 60.36C250.776 57.9707 251.736 55.432 252.462 52.744C253.23 50.0133 253.614 47.3893 253.614 44.872C253.614 44.1467 253.614 43.6987 253.614 43.528C253.614 43.3573 253.592 43.1867 253.55 43.016C252.526 43.4427 251.438 44.168 250.286 45.192C249.134 46.216 247.982 47.4107 246.83 48.776C245.678 50.0987 244.59 51.5493 243.566 53.128C242.542 54.7067 241.624 56.2853 240.814 57.864C240.003 59.4427 239.363 60.9573 238.894 62.408C238.424 63.8587 238.19 65.1387 238.19 66.248C238.19 68.3813 239.15 69.5973 241.07 69.896ZM285.397 59.08C284.416 62.1947 283.434 65.032 282.453 67.592C281.472 70.152 280.426 72.4987 279.317 74.632C278.208 76.808 277.013 78.792 275.733 80.584C274.453 82.4187 273.045 84.1467 271.509 85.768C269.546 87.816 267.52 89.3733 265.429 90.44C263.338 91.5493 261.248 92.104 259.157 92.104C258.09 92.104 257.024 91.976 255.957 91.72C254.933 91.5067 253.973 91.1867 253.077 90.76C252.138 90.376 251.328 89.9067 250.645 89.352C249.92 88.84 249.408 88.2853 249.109 87.688C249.109 87.176 249.408 86.728 250.005 86.344C250.517 86.8133 250.944 87.176 251.285 87.432C251.626 87.688 251.968 87.9013 252.309 88.072C252.608 88.2427 252.949 88.3493 253.333 88.392C253.674 88.4347 254.08 88.456 254.549 88.456C256.981 88.456 259.349 87.7307 261.653 86.28C264 84.872 266.197 82.8453 268.245 80.2C270.336 77.5973 272.234 74.4187 273.941 70.664C275.648 66.952 277.098 62.792 278.293 58.184C277.738 59.0373 277.056 60.0827 276.245 61.32C275.434 62.5573 274.538 63.7947 273.557 65.032C272.576 66.2267 271.552 67.3147 270.485 68.296C269.461 69.2773 268.458 69.9387 267.477 70.28C266.794 70.2373 266.069 70.088 265.301 69.832C264.576 69.6187 263.872 69.2987 263.189 68.872C262.549 68.4453 261.973 67.9333 261.461 67.336C260.949 66.7387 260.608 66.056 260.437 65.288C260.437 64.0507 260.48 63.0693 260.565 62.344C260.65 61.576 260.8 60.744 261.013 59.848C261.397 58.2267 261.952 56.392 262.677 54.344C263.445 52.296 264.32 50.2907 265.301 48.328C266.325 46.3227 267.434 44.4667 268.629 42.76C269.866 41.0107 271.146 39.6453 272.469 38.664C272.81 38.664 273.237 38.7067 273.749 38.792C274.261 38.8347 274.794 38.9413 275.349 39.112C275.904 39.2827 276.437 39.496 276.949 39.752C277.461 39.9653 277.909 40.264 278.293 40.648C277.824 41.0747 276.8 42.504 275.221 44.936C273.642 47.368 271.893 50.8667 269.973 55.432C269.76 55.9013 269.504 56.584 269.205 57.48C268.906 58.376 268.608 59.3147 268.309 60.296C268.053 61.2773 267.818 62.2373 267.605 63.176C267.392 64.1147 267.285 64.8613 267.285 65.416C267.285 65.7573 267.328 66.0133 267.413 66.184C267.541 66.3547 267.648 66.4827 267.733 66.568C268.501 66.44 269.525 65.8213 270.805 64.712C272.085 63.56 273.536 61.7893 275.157 59.4C276.181 57.864 277.12 56.3493 277.973 54.856C278.826 53.32 279.658 51.784 280.469 50.248C281.322 48.712 282.197 47.1333 283.093 45.512C283.989 43.8907 284.949 42.2267 285.973 40.52C286.528 40.52 287.125 40.584 287.765 40.712C288.405 40.84 289.024 41.0107 289.621 41.224C290.218 41.3947 290.73 41.608 291.157 41.864C291.626 42.0773 291.968 42.312 292.181 42.568C290.858 45.384 289.621 48.136 288.469 50.824C287.317 53.512 286.293 56.264 285.397 59.08Z" fill="white"/>
<path d="M28.704 92.824C26.144 92.824 24.16 92.12 22.752 90.712C21.408 89.24 20.736 87.48 20.736 85.432C20.736 84.92 20.8 84.312 20.928 83.608C21.12 82.904 21.344 82.296 21.6 81.784C22.432 82.168 23.648 82.456 25.248 82.648C26.912 82.776 28.832 82.84 31.008 82.84C34.272 82.84 37.952 82.712 42.048 82.456C46.208 82.136 50.176 81.816 53.952 81.496C57.728 81.176 61.056 80.888 63.936 80.632C66.816 80.312 68.672 80.152 69.504 80.152C71.872 80.152 73.568 81.048 74.592 82.84C75.68 84.568 76.48 86.904 76.992 89.848C75.328 89.72 73.664 89.624 72 89.56C70.4 89.432 69.024 89.368 67.872 89.368C65.824 89.368 63.744 89.432 61.632 89.56C59.584 89.688 57.504 89.88 55.392 90.136C54.496 91.992 53.504 94.2 52.416 96.76C51.328 99.256 50.24 101.88 49.152 104.632C48.128 107.384 47.136 110.136 46.176 112.888C45.216 115.576 44.384 118.008 43.68 120.184C42.272 124.408 41.024 128.312 39.936 131.896C38.912 135.48 37.984 138.84 37.152 141.976C36.384 145.048 35.712 147.992 35.136 150.808C34.56 153.624 34.048 156.376 33.6 159.064C29.312 158.424 25.728 155.736 22.848 151C23.36 149.016 23.968 146.872 24.672 144.568C25.44 142.2 26.304 139.544 27.264 136.6C28.288 133.592 29.472 130.2 30.816 126.424C32.16 122.648 33.696 118.36 35.424 113.56C36.064 111.768 36.736 109.912 37.44 107.992C38.144 106.008 38.816 104.056 39.456 102.136C40.16 100.216 40.768 98.36 41.28 96.568C41.856 94.776 42.336 93.144 42.72 91.672C40.032 91.992 37.472 92.28 35.04 92.536C32.672 92.728 30.56 92.824 28.704 92.824ZM87.9945 112.216C88.6345 112.216 89.3705 112.344 90.2025 112.6C91.0985 112.792 91.8985 113.08 92.6025 113.464C93.3065 113.784 93.8825 114.136 94.3305 114.52C94.8425 114.904 95.0985 115.256 95.0985 115.576C93.8185 118.264 92.6345 120.984 91.5465 123.736C90.4585 126.424 89.5305 129.016 88.7625 131.512C87.9945 134.008 87.3865 136.344 86.9385 138.52C86.5545 140.696 86.3625 142.584 86.3625 144.184C86.3625 145.976 86.5545 147.48 86.9385 148.696C87.3225 149.848 87.9625 150.68 88.8585 151.192C88.0905 151.704 87.0985 152.12 85.8825 152.44C84.6665 152.76 83.5785 152.92 82.6185 152.92C79.1625 152.92 77.4345 150.552 77.4345 145.816C77.4345 142.168 78.6505 137.176 81.0825 130.84C79.8025 133.784 78.3305 136.568 76.6665 139.192C75.0025 141.752 73.3065 144.024 71.5785 146.008C69.8505 147.992 68.0905 149.624 66.2985 150.904C64.5705 152.12 62.9705 152.856 61.4985 153.112C59.1305 152.984 57.2105 151.864 55.7385 149.752C54.2665 147.576 53.5305 144.824 53.5305 141.496C53.5305 137.912 54.2985 134.136 55.8345 130.168C57.3705 126.2 59.3225 122.52 61.6905 119.128C64.1225 115.736 66.7465 112.92 69.5625 110.68C72.3785 108.376 75.0985 107.16 77.7225 107.032C78.3625 107.224 79.0665 107.608 79.8345 108.184C80.6665 108.76 81.4345 109.432 82.1385 110.2C82.9065 110.968 83.5465 111.768 84.0585 112.6C84.5705 113.368 84.8585 114.04 84.9225 114.616C82.3625 115 79.7065 116.248 76.9545 118.36C74.2665 120.472 71.8025 123.032 69.5625 126.04C67.3865 128.984 65.5945 132.152 64.1865 135.544C62.7785 138.936 62.0745 142.104 62.0745 145.048C62.0745 146.264 62.5225 147.032 63.4185 147.352C65.2745 146.968 67.4185 145.4 69.8505 142.648C72.2825 139.832 75.2265 135.512 78.6825 129.688C79.3225 128.536 80.0265 127.256 80.7945 125.848C81.6265 124.44 82.4585 122.968 83.2905 121.432C84.1225 119.896 84.9225 118.36 85.6905 116.824C86.5225 115.224 87.2905 113.688 87.9945 112.216ZM92.9603 182.776C92.0643 182.52 91.5523 181.56 91.4243 179.896C91.1683 179.064 90.9763 178.072 90.8483 176.92C90.7843 175.768 90.7523 174.456 90.7523 172.984C90.7523 171.64 90.9763 169.784 91.4243 167.416C91.8723 165.112 92.4803 162.488 93.2483 159.544C94.0803 156.6 95.0723 153.432 96.2243 150.04C97.3763 146.584 98.6563 143.096 100.064 139.576C101.792 135.16 103.296 131.352 104.576 128.152C105.856 124.888 106.912 122.072 107.744 119.704C108.64 117.336 109.344 115.384 109.856 113.848C110.432 112.312 110.88 111 111.2 109.912C111.456 109.144 111.84 108.216 112.352 107.128C112.864 106.04 113.44 104.952 114.08 103.864C114.784 102.712 115.488 101.656 116.192 100.696C116.896 99.672 117.536 98.904 118.112 98.392C120.352 98.712 122.464 99.288 124.448 100.12C126.432 100.952 127.648 101.752 128.096 102.52C127.2 103.352 126.176 104.664 125.024 106.456C123.872 108.184 122.752 110.104 121.664 112.216C120.576 114.264 119.584 116.376 118.688 118.552C117.792 120.728 117.12 122.648 116.672 124.312C117.312 123.224 118.144 122.04 119.168 120.76C120.192 119.48 121.76 117.72 123.872 115.48C126.24 113.048 128.448 111.192 130.496 109.912C132.608 108.568 134.432 107.896 135.968 107.896C138.4 107.896 140.384 108.568 141.92 109.912C143.52 111.256 144.32 112.984 144.32 115.096C144.32 119.704 143.552 124.28 142.016 128.824C140.48 133.304 138.272 137.368 135.392 141.016C134.304 142.424 133.024 143.768 131.552 145.048C130.08 146.328 128.544 147.48 126.944 148.504C125.344 149.464 123.776 150.232 122.24 150.808C120.704 151.384 119.328 151.672 118.112 151.672C116.96 151.672 115.936 151.448 115.04 151C114.208 150.488 113.632 149.88 113.312 149.176C115.808 147.704 118.24 145.656 120.608 143.032C122.976 140.408 125.152 137.4 127.136 134.008C129.184 130.552 130.944 126.84 132.416 122.872C133.952 118.904 135.104 114.872 135.872 110.776C133.44 112.056 131.232 113.464 129.248 115C127.328 116.472 125.408 118.424 123.488 120.856C121.184 123.672 119.36 125.944 118.016 127.672C116.672 129.4 115.552 130.872 114.656 132.088C113.824 133.304 113.12 134.456 112.544 135.544C112.032 136.568 111.456 137.848 110.816 139.384C109.92 141.432 108.864 144.152 107.648 147.544C106.496 150.872 105.28 154.616 104 158.776C102.784 162.936 101.536 167.352 100.256 172.024C99.0403 176.76 97.8563 181.464 96.7043 186.136C96.0003 186.008 95.3923 185.496 94.8803 184.6C94.3683 184.024 93.9843 183.608 93.7283 183.352C93.5363 183.096 93.2803 182.904 92.9603 182.776ZM145.477 149.08C145.797 147.224 146.341 144.792 147.109 141.784C147.941 138.712 148.901 135.48 149.989 132.088C151.077 128.632 152.229 125.176 153.445 121.72C154.661 118.264 155.845 115.16 156.997 112.408C157.829 110.424 158.565 108.888 159.205 107.8C159.845 106.648 160.549 105.688 161.317 104.92C162.213 105.048 163.141 105.272 164.101 105.592C165.061 105.912 165.989 106.296 166.885 106.744C167.781 107.192 168.581 107.672 169.285 108.184C169.989 108.632 170.533 109.08 170.917 109.528C169.189 111.576 167.653 113.912 166.309 116.536C165.029 119.16 163.717 122.52 162.373 126.616C165.829 123.544 168.869 120.6 171.493 117.784C174.181 114.968 176.677 111.832 178.981 108.376C179.365 108.056 180.037 107.896 180.997 107.896C181.893 107.896 182.757 108.056 183.589 108.376C184.421 108.632 184.997 109.016 185.317 109.528C184.165 112.6 183.589 115.64 183.589 118.648C183.589 121.464 184.005 123.576 184.837 124.984C184.773 125.368 184.325 126.104 183.493 127.192C182.725 128.28 181.861 129.304 180.901 130.264C179.173 129.368 177.637 128.152 176.293 126.616C174.949 125.016 173.957 123.288 173.317 121.432C170.309 123.544 167.749 125.624 165.637 127.672C163.525 129.656 161.701 131.896 160.165 134.392C158.693 136.824 157.413 139.64 156.325 142.84C155.301 146.04 154.309 149.848 153.349 154.264C152.773 154.2 152.069 153.976 151.237 153.592C150.469 153.272 149.669 152.856 148.837 152.344C148.069 151.832 147.365 151.288 146.725 150.712C146.085 150.136 145.669 149.592 145.477 149.08ZM197.828 154.36C194.18 153.976 191.268 152.376 189.092 149.56C186.916 146.744 185.828 143.16 185.828 138.808C185.828 136.248 186.212 133.592 186.98 130.84C187.748 128.088 188.836 125.432 190.244 122.872C191.652 120.248 193.316 117.784 195.236 115.48C197.156 113.176 199.236 111.192 201.476 109.528C204.996 106.904 208.292 105.592 211.364 105.592C213.412 106.68 215.428 108.952 217.412 112.408C217.732 112.408 218.02 112.408 218.276 112.408C218.532 112.344 218.82 112.312 219.14 112.312C222.532 112.312 224.228 115.32 224.228 121.336C224.228 125.368 223.556 129.208 222.212 132.856C220.932 136.44 219.108 139.704 216.74 142.648C214.436 145.592 211.652 148.088 208.388 150.136C205.188 152.12 201.668 153.528 197.828 154.36ZM202.724 124.12C201.636 125.592 200.612 127.192 199.652 128.92C198.692 130.648 197.86 132.408 197.156 134.2C196.452 135.928 195.908 137.624 195.524 139.288C195.14 140.888 194.948 142.328 194.948 143.608C194.948 145.144 195.204 146.616 195.716 148.024C196.228 149.432 196.804 150.232 197.444 150.424C200.324 149.784 202.948 148.6 205.316 146.872C207.748 145.08 209.828 142.872 211.556 140.248C213.348 137.624 214.724 134.648 215.684 131.32C216.708 127.992 217.22 124.44 217.22 120.664C217.22 119 217.124 117.688 216.932 116.728C216.74 115.768 216.42 114.936 215.972 114.232C213.156 115.064 210.628 116.408 208.388 118.264C206.212 120.12 204.324 122.072 202.724 124.12ZM240.203 154.36C236.555 153.976 233.643 152.376 231.467 149.56C229.291 146.744 228.203 143.16 228.203 138.808C228.203 136.248 228.587 133.592 229.355 130.84C230.123 128.088 231.211 125.432 232.619 122.872C234.027 120.248 235.691 117.784 237.611 115.48C239.531 113.176 241.611 111.192 243.851 109.528C247.371 106.904 250.667 105.592 253.739 105.592C255.787 106.68 257.803 108.952 259.787 112.408C260.107 112.408 260.395 112.408 260.651 112.408C260.907 112.344 261.195 112.312 261.515 112.312C264.907 112.312 266.603 115.32 266.603 121.336C266.603 125.368 265.931 129.208 264.587 132.856C263.307 136.44 261.483 139.704 259.115 142.648C256.811 145.592 254.027 148.088 250.763 150.136C247.563 152.12 244.043 153.528 240.203 154.36ZM245.099 124.12C244.011 125.592 242.987 127.192 242.027 128.92C241.067 130.648 240.235 132.408 239.531 134.2C238.827 135.928 238.283 137.624 237.899 139.288C237.515 140.888 237.323 142.328 237.323 143.608C237.323 145.144 237.579 146.616 238.091 148.024C238.603 149.432 239.179 150.232 239.819 150.424C242.699 149.784 245.323 148.6 247.691 146.872C250.123 145.08 252.203 142.872 253.931 140.248C255.723 137.624 257.099 134.648 258.059 131.32C259.083 127.992 259.595 124.44 259.595 120.664C259.595 119 259.499 117.688 259.307 116.728C259.115 115.768 258.795 114.936 258.347 114.232C255.531 115.064 253.003 116.408 250.763 118.264C248.587 120.12 246.699 122.072 245.099 124.12ZM326.738 121.528C325.714 121.592 324.466 122.264 322.994 123.544C321.522 124.76 319.922 126.36 318.194 128.344C316.53 130.264 314.77 132.408 312.914 134.776C311.122 137.144 309.362 139.512 307.634 141.88C305.97 144.184 304.402 146.36 302.93 148.408C301.458 150.456 300.21 152.088 299.186 153.304C297.778 152.728 296.562 151.896 295.538 150.808C294.514 149.656 293.778 148.248 293.33 146.584C293.65 144.6 294.098 142.552 294.674 140.44C295.25 138.264 295.986 136.024 296.882 133.72C297.842 131.416 298.994 129.016 300.338 126.52C301.746 123.96 303.442 121.272 305.426 118.456C304.466 118.52 303.154 119.224 301.49 120.568C299.826 121.848 298.034 123.544 296.114 125.656C294.194 127.704 292.21 130.04 290.161 132.664C288.114 135.224 286.194 137.752 284.402 140.248C282.034 143.576 280.05 146.488 278.45 148.984C276.914 151.48 275.794 152.952 275.09 153.4C273.426 152.184 272.274 150.872 271.634 149.464C270.994 148.056 270.514 146.488 270.194 144.76C270.258 143.224 270.482 141.304 270.866 139C271.314 136.696 271.922 134.328 272.69 131.896C274.162 127.224 276.05 122.584 278.354 117.976C280.722 113.368 282.994 109.144 285.17 105.304C286.962 105.688 288.562 106.296 289.97 107.128C291.442 107.96 292.978 109.176 294.578 110.776C293.938 112.76 292.946 114.872 291.602 117.112C290.258 119.288 288.85 121.592 287.378 124.024C285.906 126.456 284.562 128.952 283.346 131.512C282.13 134.072 281.33 136.664 280.946 139.288C282.738 136.728 284.85 133.784 287.281 130.456C289.778 127.128 292.306 123.992 294.866 121.048C297.49 118.104 300.082 115.608 302.642 113.56C305.202 111.512 307.506 110.488 309.554 110.488C310.322 110.488 311.154 110.616 312.05 110.872C312.946 111.128 313.778 111.448 314.546 111.832C315.314 112.216 315.954 112.6 316.466 112.984C316.978 113.304 317.266 113.56 317.33 113.752C317.01 115.032 316.242 116.792 315.026 119.032C313.874 121.208 312.626 123.512 311.281 125.944C309.938 128.376 308.69 130.744 307.538 133.048C306.386 135.288 305.714 137.08 305.522 138.424C308.658 134.136 311.602 130.264 314.354 126.808C317.106 123.288 319.698 120.28 322.13 117.784C324.562 115.288 326.802 113.368 328.85 112.024C330.962 110.68 332.946 110.008 334.802 110.008C336.082 110.008 337.266 110.36 338.354 111.064C339.506 111.704 340.306 112.664 340.754 113.944C340.178 115.864 339.218 118.168 337.874 120.856C336.594 123.544 335.282 126.392 333.938 129.4C332.594 132.344 331.378 135.256 330.29 138.136C329.266 141.016 328.754 143.608 328.754 145.912C328.754 147.256 328.946 148.152 329.33 148.6C329.714 148.984 330.258 149.176 330.962 149.176C331.73 149.176 332.434 149.048 333.074 148.792C333.778 148.472 334.29 148.312 334.61 148.312C334.994 148.568 335.218 148.888 335.282 149.272C335.346 149.656 335.378 150.008 335.378 150.328C334.098 151.352 332.786 152.184 331.442 152.824C330.098 153.528 328.594 153.88 326.93 153.88C325.394 153.88 324.114 153.624 323.09 153.112C322.13 152.6 321.33 151.896 320.69 151C320.05 150.104 319.602 149.08 319.346 147.928C319.09 146.776 318.962 145.528 318.962 144.184C318.962 142.008 319.25 139.864 319.826 137.752C320.402 135.576 321.074 133.528 321.842 131.608C322.674 129.624 323.538 127.8 324.434 126.136C325.33 124.408 326.098 122.872 326.738 121.528Z" fill="white"/>
</svg>
